<svg width="170" height="51" viewBox="0 0 170 51" fill="none" xmlns="http://www.w3.org/2000/svg">
<path d="M170 44.108C170 47.9148 166.636 51 162.488 51H7.51487C3.36399 51 0 47.9125 0 44.108V6.89202C0 3.08518 3.36399 0 7.51487 0H162.488C166.636 0 170 3.08518 170 6.89202V44.108Z" fill="black"/>
<path d="M46.9891 33.371C46.1431 35.0996 45.7356 35.8723 44.6475 37.4C43.1256 39.5349 40.9805 42.1907 38.3249 42.2128C35.9641 42.2327 35.3577 40.7977 32.1533 40.8131C28.9488 40.8286 28.2801 42.2371 25.9169 42.2172C23.2589 42.1951 21.2265 39.7954 19.7045 37.6605C15.4503 31.6931 15.0045 24.6925 17.6289 20.9703C19.4936 18.3255 22.4344 16.7756 25.2027 16.7756C28.0189 16.7756 29.7901 18.1996 32.1197 18.1996C34.3774 18.1996 35.7556 16.7734 39.0128 16.7734C41.4742 16.7734 44.0819 18.0075 45.9418 20.1424C39.8492 23.2199 40.8367 31.2295 46.9891 33.371Z" fill="white"/>
<path d="M36.539 14.3934C37.7206 12.9937 38.6194 11.02 38.2958 9C36.364 9.12142 34.1015 10.2562 32.7833 11.7309C31.5849 13.071 30.5974 15.0601 30.9809 16.9919C33.0877 17.0515 35.2711 15.8924 36.539 14.3934Z" fill="white"/>
<path d="M59.9528 20.8818L53.8578 37.4087H56.6501L58.4692 32.3332H64.37L66.2419 37.4087H69.1108L62.9895 20.8818H59.9528ZM61.398 23.5995C61.6042 24.3369 61.8271 25.103 62.1123 25.9309L63.754 30.3131H59.078L60.6982 25.9022C60.9474 25.1869 61.1799 24.4142 61.398 23.5995Z" fill="white"/>
<path d="M76.9985 25.166C75.1506 25.166 73.6694 25.8239 72.682 27.0735L72.5741 25.4287H70.0911L70.1054 25.6385C70.1773 26.6628 70.2085 27.7888 70.2085 29.407V42.1455H72.924V36.2001C73.7653 37.1274 75.1099 37.6682 76.6342 37.6682C78.2208 37.6682 79.6829 37.0964 80.747 36.0566C81.9358 34.8998 82.5638 33.2352 82.5638 31.246C82.5638 29.4887 82.0197 27.9698 80.9867 26.8549C79.9753 25.7665 78.5588 25.166 76.9985 25.166ZM76.3202 27.2368C78.7409 27.2368 79.8243 29.301 79.8243 31.3476C79.8243 33.9858 78.4413 35.6261 76.2172 35.6261C74.6976 35.6261 73.3842 34.6746 73.0199 33.3058C72.9576 33.0939 72.924 32.8135 72.924 32.4956V30.4844C72.924 30.3033 72.9672 30.0804 73.0103 29.8662C73.0247 29.7978 73.0391 29.7293 73.0487 29.6631C73.4537 28.2347 74.7983 27.2368 76.3202 27.2368Z" fill="white"/>
<path d="M90.976 25.166C89.1282 25.166 87.647 25.8239 86.6595 27.0735L86.5516 25.4287H84.0686L84.083 25.6385C84.1573 26.6628 84.1884 27.7888 84.1884 29.407V42.1455H86.904V36.2001C87.7452 37.1274 89.0898 37.6682 90.6141 37.6682C92.2008 37.6682 93.6628 37.0964 94.7294 36.0566C95.9157 34.8998 96.5437 33.2352 96.5437 31.246C96.5437 29.4887 95.9972 27.9698 94.9666 26.8549C93.9552 25.7665 92.5387 25.166 90.976 25.166ZM90.3002 27.2368C92.7185 27.2368 93.8018 29.301 93.8018 31.3476C93.8018 33.9858 92.4189 35.6261 90.1971 35.6261C88.68 35.6261 87.3641 34.6746 86.9998 33.3058C86.9375 33.0939 86.904 32.8135 86.904 32.4956V30.4844C86.904 30.3011 86.9471 30.0804 86.9902 29.864C87.0046 29.7978 87.0166 29.7293 87.0286 29.6631C87.4312 28.2347 88.7758 27.2368 90.3002 27.2368Z" fill="white"/>
<path d="M108.489 27.8837C105.955 26.9808 105.143 26.2699 105.143 24.9563C105.143 23.8502 106.097 22.7354 108.228 22.7354C109.987 22.7354 111.111 23.2983 111.415 23.4727L111.645 23.603L112.412 21.5167L112.261 21.435C111.806 21.19 110.509 20.6182 108.309 20.6182C104.848 20.6182 102.43 22.5013 102.43 25.1947C102.43 27.3671 103.945 28.886 107.195 29.9744C109.498 30.767 110.356 31.5794 110.356 32.9725C110.356 34.5488 109.033 35.5268 106.905 35.5268C105.519 35.5268 104.093 35.1537 102.993 34.5046L102.758 34.3655L102.03 36.5004L102.164 36.5821C103.19 37.2135 105.117 37.6683 106.751 37.6683C111.418 37.6683 113.071 35.0477 113.071 32.8047C113.067 30.4932 111.741 29.067 108.489 27.8837Z" fill="white"/>
<path d="M117.954 22.5811L115.291 23.3515V25.429H113.343V27.427H115.291V33.5489C115.291 35.0281 115.598 36.0657 116.231 36.7214C116.837 37.3329 117.769 37.6707 118.858 37.6707C119.883 37.6707 120.612 37.483 120.955 37.3727L121.106 37.3241L120.976 35.3217L120.715 35.3946C120.372 35.4917 120.02 35.5292 119.452 35.5292C118.4 35.5292 117.952 34.9155 117.952 33.4761V27.427H121.226V25.429H117.952V22.5811H117.954Z" fill="white"/>
<path d="M127.956 25.166C124.157 25.166 121.506 27.7777 121.506 31.5154C121.506 35.1404 124.073 37.6727 127.749 37.6727H127.773C130.882 37.6727 134.223 35.6791 134.223 31.3012C134.223 29.5218 133.626 27.9919 132.493 26.8792C131.354 25.7577 129.784 25.166 127.956 25.166ZM127.876 27.1397C130.319 27.1397 131.431 29.332 131.431 31.3719C131.431 33.8776 129.914 35.6968 127.826 35.6968H127.8C125.741 35.6968 124.245 33.9085 124.245 31.4425C124.245 29.301 125.369 27.1397 127.876 27.1397Z" fill="white"/>
<path d="M142.537 25.2808L142.374 25.2433C142.135 25.1881 141.941 25.166 141.698 25.166C140.277 25.166 139.005 25.9365 138.295 27.1794L138.216 25.4287H135.781L135.798 25.6385C135.87 26.6275 135.901 27.7402 135.901 29.2392L135.877 37.4077H138.592V31.0341C138.592 30.6875 138.619 30.3585 138.667 30.0649C138.973 28.535 140.095 27.5459 141.524 27.5459C141.802 27.5459 142.02 27.5658 142.252 27.5879L142.542 27.6166V25.2808H142.537Z" fill="white"/>
<path d="M148.642 25.1416C145.028 25.1416 142.504 27.8019 142.504 31.6102C142.504 35.2772 145.016 37.6482 148.901 37.6482C150.946 37.6482 152.367 37.2354 153.198 36.8888L153.361 36.8203L152.839 34.957L152.614 35.0409C151.873 35.3191 150.89 35.6017 149.213 35.6017C148.033 35.6017 145.313 35.2441 145.148 31.9767L153.91 32.0009L153.946 31.842C154.001 31.5881 154.028 31.2459 154.028 30.7977C154.028 28.1882 152.616 25.1416 148.642 25.1416ZM148.46 27.0446C149.287 27.0446 149.958 27.2809 150.452 27.7445C151.233 28.4774 151.37 29.5548 151.387 30.0714H145.196C145.45 28.6276 146.43 27.0446 148.46 27.0446Z" fill="white"/>
<path d="M53.8582 9.59085C54.6155 9.49813 55.4976 9.42969 56.461 9.42969C58.2107 9.42969 59.457 9.75422 60.2839 10.3922C61.1371 11.0303 61.6284 11.9465 61.6284 13.2115C61.6284 14.4875 61.1371 15.5318 60.2695 16.2515C59.3731 16.9822 57.9183 17.3774 56.0824 17.3774C55.2004 17.3774 54.4861 17.3553 53.8558 17.2847V9.59085H53.8582ZM55.0901 16.5208C55.3969 16.5672 55.8451 16.5672 56.322 16.5672C58.9249 16.5782 60.339 15.3596 60.339 13.249C60.3534 11.3813 59.0927 10.2311 56.5186 10.2311C55.8882 10.2311 55.4137 10.2774 55.0901 10.3348V16.5208Z" fill="white"/>
<path d="M65.9926 17.4369C64.1735 17.4369 62.745 16.3221 62.745 14.5471C62.745 12.6661 64.243 11.5645 66.1052 11.5645C68.0514 11.5645 69.3672 12.7367 69.3672 14.4433C69.3672 16.5318 67.6176 17.4369 66.007 17.4369H65.9926ZM66.0357 16.6709C67.2125 16.6709 68.0945 15.7547 68.0945 14.4764C68.0945 13.5249 67.5193 12.3305 66.0645 12.3305C64.6217 12.3305 63.9913 13.4454 63.9913 14.5117C63.9913 15.7414 64.8326 16.6709 66.0214 16.6709H66.0357Z" fill="white"/>
<path d="M71.316 11.6924L72.2267 14.5359C72.4089 15.1629 72.591 15.7546 72.7157 16.3352H72.7564C72.9098 15.7656 73.1351 15.1629 73.358 14.5492L74.4629 11.6946H75.4983L76.5481 14.5028C76.7997 15.1651 76.9963 15.7678 77.1497 16.3374H77.1904C77.3031 15.7678 77.4852 15.1761 77.7081 14.516L78.674 11.6968H79.8916L77.7081 17.3132H76.5936L75.5582 14.633C75.3209 13.995 75.1244 13.4387 74.9566 12.7764H74.9279C74.7601 13.4497 74.5492 14.0414 74.3119 14.6441L73.2214 17.3132H72.1021L70.0577 11.6968H71.316V11.6924Z" fill="white"/>
<path d="M81.1312 13.2136C81.1312 12.6219 81.1168 12.1583 81.076 11.6925H82.169L82.2385 12.6087H82.2672C82.6028 12.0855 83.3865 11.5645 84.5058 11.5645C85.4429 11.5645 86.9002 12.0281 86.9002 13.9554V17.3089H85.6682V14.0724C85.6682 13.1672 85.2608 12.4012 84.1007 12.4012C83.3026 12.4012 82.6723 12.8758 82.4494 13.4454C82.3943 13.5735 82.3655 13.7589 82.3655 13.9223V17.3111H81.1336V13.2136H81.1312Z" fill="white"/>
<path d="M88.9011 9.06982H90.1331V17.309H88.9011V9.06982Z" fill="white"/>
<path d="M94.9339 17.4369C93.1148 17.4369 91.6863 16.3221 91.6863 14.5471C91.6863 12.6661 93.1843 11.5645 95.0466 11.5645C96.9927 11.5645 98.3086 12.7367 98.3086 14.4433C98.3086 16.5318 96.5589 17.4369 94.9483 17.4369H94.9339ZM94.9771 16.6709C96.1539 16.6709 97.0359 15.7547 97.0359 14.4764C97.0359 13.5249 96.4607 12.3305 95.0058 12.3305C93.563 12.3305 92.9327 13.4454 92.9327 14.5117C92.9327 15.7414 93.7739 16.6709 94.9627 16.6709H94.9771Z" fill="white"/>
<path d="M104.636 15.9622C104.636 16.4501 104.665 16.9248 104.734 17.3089H103.629L103.517 16.6002H103.476C103.112 17.0418 102.369 17.4347 101.405 17.4347C100.034 17.4347 99.3345 16.6333 99.3345 15.8209C99.3345 14.4632 100.789 13.7214 103.407 13.7324V13.6198C103.407 13.1562 103.253 12.3084 101.868 12.3195C101.223 12.3195 100.566 12.4696 100.089 12.7367L99.809 12.0524C100.37 11.7631 101.194 11.5645 102.05 11.5645C104.135 11.5645 104.638 12.7367 104.638 13.8627V15.9622H104.636ZM103.433 14.4433C102.088 14.4212 100.564 14.6177 100.564 15.7083C100.564 16.3817 101.096 16.6841 101.712 16.6841C102.608 16.6841 103.181 16.2205 103.378 15.7436C103.421 15.6399 103.435 15.5229 103.435 15.4191V14.4433H103.433Z" fill="white"/>
<path d="M112.463 9.06982V15.8585C112.463 16.3575 112.478 16.927 112.518 17.309H111.413L111.358 16.3354H111.33C110.951 16.9624 110.138 17.437 109.033 17.437C107.394 17.437 106.121 16.289 106.121 14.5825C106.107 12.7015 107.521 11.5645 109.158 11.5645C110.208 11.5645 110.908 11.9707 111.203 12.4123H111.229V9.06982H112.463ZM111.231 13.9798C111.231 13.8407 111.217 13.6773 111.176 13.5382C110.994 12.9002 110.323 12.3659 109.398 12.3659C108.123 12.3659 107.368 13.2932 107.368 14.5251C107.368 15.6731 108.053 16.6135 109.369 16.6135C110.196 16.6135 110.951 16.1499 111.174 15.3949C111.217 15.2558 111.229 15.1167 111.229 14.9534V13.9798H111.231Z" fill="white"/>
<path d="M120.231 17.4369C118.412 17.4369 116.984 16.3221 116.984 14.5471C116.984 12.6661 118.482 11.5645 120.344 11.5645C122.29 11.5645 123.606 12.7367 123.606 14.4433C123.606 16.5318 121.856 17.4369 120.246 17.4369H120.231ZM120.275 16.6709C121.451 16.6709 122.331 15.7547 122.331 14.4764C122.331 13.5249 121.758 12.3305 120.301 12.3305C118.858 12.3305 118.23 13.4454 118.23 14.5117C118.23 15.7414 119.069 16.6709 120.26 16.6709H120.275Z" fill="white"/>
<path d="M125.162 13.2136C125.162 12.6219 125.148 12.1583 125.107 11.6925H126.2L126.269 12.6087H126.296C126.631 12.0855 127.415 11.5645 128.534 11.5645C129.471 11.5645 130.929 12.0281 130.929 13.9554V17.3089H129.697V14.0724C129.697 13.1672 129.292 12.4012 128.129 12.4012C127.331 12.4012 126.701 12.8758 126.478 13.4454C126.423 13.5735 126.394 13.7589 126.394 13.9223V17.3111H125.162V13.2136Z" fill="white"/>
<path d="M137.383 10.3462V11.6929H139.147V12.47H137.383V15.499C137.383 16.1944 137.62 16.5896 138.308 16.5896C138.643 16.5896 138.84 16.5675 139.022 16.5211L139.077 17.2982C138.84 17.3667 138.461 17.4373 137.984 17.4373C137.411 17.4373 136.949 17.274 136.654 17.009C136.318 16.6955 136.179 16.1966 136.179 15.5343V12.47H135.13V11.6929H136.179V10.6597L137.383 10.3462Z" fill="white"/>
<path d="M140.534 9.06982H141.766V12.5734H141.795C141.989 12.2842 142.298 12.0171 142.677 11.8537C143.041 11.6683 143.473 11.5645 143.938 11.5645C144.846 11.5645 146.303 12.0281 146.303 13.9665V17.309H145.069V14.0835C145.069 13.1673 144.664 12.4123 143.501 12.4123C142.703 12.4123 142.087 12.8759 141.85 13.4345C141.781 13.5735 141.766 13.7237 141.766 13.9224V17.3112H140.534V9.06982Z" fill="white"/>
<path d="M149.004 14.6749C149.033 16.0569 150.083 16.6243 151.314 16.6243C152.196 16.6243 152.743 16.4963 153.191 16.3461L153.414 17.0659C152.98 17.2292 152.223 17.4257 151.147 17.4257C149.073 17.4257 147.815 16.2755 147.815 14.5932C147.815 12.8867 149.033 11.5532 151.008 11.5532C153.22 11.5532 153.793 13.1671 153.793 14.2003C153.793 14.41 153.778 14.5712 153.752 14.6882L149.004 14.6749ZM152.601 13.9442C152.616 13.3061 152.28 12.284 150.907 12.284C149.646 12.284 149.114 13.2355 149.016 13.9442H152.601Z" fill="white"/>
</svg>
