<svg width="95" height="116" viewBox="0 0 95 116" fill="none" xmlns="http://www.w3.org/2000/svg">
<path d="M90.8088 18.4412H83.8235V4.19118C83.7509 1.90731 81.9162 0.0725816 79.6324 0H13.4118C6.00462 0 0 6.00462 0 13.4118V101.985C0 109.392 6.00462 115.397 13.4118 115.397H90.8088C93.1235 115.397 95 113.521 95 111.206V22.6324C95 20.3177 93.1235 18.4412 90.8088 18.4412ZM48.6176 63.0074L38.5588 54.7647C37.1839 53.936 35.4632 53.936 34.0882 54.7647L24.0294 63.0074V26.8235H48.6176V63.0074ZM75.4412 18.4412H13.4118C10.634 18.4412 8.38235 16.1895 8.38235 13.4118C8.38235 10.634 10.634 8.38235 13.4118 8.38235H75.4412V18.4412Z" fill="white"/>
</svg>
