<svg width="40" height="53" viewBox="0 0 40 53" fill="none" xmlns="http://www.w3.org/2000/svg">
<path d="M39.1304 0H4.34783C1.94783 0.00282609 0.00282609 1.94783 0 4.34783V47.8261C0.00282609 50.2261 1.94783 52.1711 4.34783 52.1739H39.1304C39.6107 52.1739 40 51.7846 40 51.3043V0.869565C40 0.389348 39.6107 0 39.1304 0ZM28.6957 1.73913H33.913V9.89739L31.693 8.78696C31.4484 8.66467 31.1603 8.66467 30.9157 8.78696L28.6957 9.89739V1.73913ZM1.73913 4.34783C1.73913 2.90707 2.90707 1.73913 4.34783 1.73913H5.21739V41.7391H4.34783C3.40391 41.7423 2.48728 42.0559 1.73913 42.6313V4.34783ZM38.2609 46.087H5.21739V47.8261H38.2609V50.4348H4.34783C2.90707 50.4348 1.73913 49.2668 1.73913 47.8261V46.087C1.73913 44.6462 2.90707 43.4783 4.34783 43.4783H38.2609V46.087ZM38.2609 41.7391H6.95652V1.73913H26.9565V11.3043C26.9563 11.7846 27.3454 12.1741 27.8257 12.1743C27.9608 12.1745 28.0939 12.143 28.2148 12.0826L31.3043 10.5374L34.3939 12.087C34.8235 12.3016 35.3458 12.1274 35.5604 11.6978C35.6215 11.5757 35.6529 11.4409 35.6522 11.3043V1.73913H38.2609V41.7391V41.7391Z" fill="#F25549"/>
</svg>
