<svg width="158" height="165" viewBox="0 0 158 165" fill="none" xmlns="http://www.w3.org/2000/svg">
<path d="M111.161 84.6032C116.41 80.1221 120.62 74.5797 123.505 68.3523C126.391 62.1248 127.884 55.358 127.884 48.511C127.884 35.6451 122.702 23.3061 113.478 14.2086C104.253 5.11097 91.7427 0 78.6978 0C65.6528 0 53.1421 5.11097 43.9179 14.2086C34.6938 23.3061 29.5117 35.6451 29.5117 48.511C29.5116 55.358 31.005 62.1248 33.8905 68.3523C36.776 74.5797 40.986 80.1221 46.2349 84.6032C32.4642 90.7533 20.7808 100.685 12.5816 113.211C4.38243 125.736 0.014479 140.326 0 155.235C0 157.808 1.03642 160.276 2.88125 162.096C4.72609 163.915 7.22823 164.938 9.83722 164.938C12.4462 164.938 14.9484 163.915 16.7932 162.096C18.638 160.276 19.6744 157.808 19.6744 155.235C19.6744 139.796 25.893 124.989 36.962 114.072C48.031 103.155 63.0438 97.0221 78.6978 97.0221C94.3517 97.0221 109.365 103.155 120.434 114.072C131.503 124.989 137.721 139.796 137.721 155.235C137.721 157.808 138.758 160.276 140.602 162.096C142.447 163.915 144.949 164.938 147.558 164.938C150.167 164.938 152.669 163.915 154.514 162.096C156.359 160.276 157.396 157.808 157.396 155.235C157.381 140.326 153.013 125.736 144.814 113.211C136.615 100.685 124.931 90.7533 111.161 84.6032ZM78.6978 77.6176C72.8609 77.6176 67.1551 75.9106 62.302 72.7123C57.4488 69.514 53.6662 64.9682 51.4325 59.6496C49.1989 54.3311 48.6145 48.4787 49.7532 42.8326C50.8919 37.1865 53.7026 32.0002 57.8299 27.9295C61.9572 23.8589 67.2156 21.0868 72.9403 19.9637C78.665 18.8406 84.5988 19.417 89.9914 21.62C95.3839 23.823 99.993 27.5537 103.236 32.3403C106.479 37.1268 108.209 42.7543 108.209 48.511C108.209 56.2306 105.1 63.634 99.5657 69.0925C94.0312 74.5511 86.5247 77.6176 78.6978 77.6176Z" fill="white"/>
</svg>
