<svg width="53" height="53" viewBox="0 0 53 53" fill="none" xmlns="http://www.w3.org/2000/svg">
<circle cx="25.6992" cy="27.2168" r="20.5" stroke="#F25549" stroke-width="2"/>
<mask id="path-2-inside-1" fill="white">
<path d="M52.1992 26.7168C52.1992 23.3024 51.5267 19.9215 50.2201 16.767C48.9135 13.6126 46.9983 10.7463 44.584 8.33202C42.1697 5.9177 39.3035 4.00255 36.149 2.69593C32.9945 1.38931 29.6136 0.716797 26.1992 0.716797L26.1992 26.7168L52.1992 26.7168Z"/>
</mask>
<path d="M52.1992 26.7168C52.1992 23.3024 51.5267 19.9215 50.2201 16.767C48.9135 13.6126 46.9983 10.7463 44.584 8.33202C42.1697 5.9177 39.3035 4.00255 36.149 2.69593C32.9945 1.38931 29.6136 0.716797 26.1992 0.716797L26.1992 26.7168L52.1992 26.7168Z" fill="white" stroke="#F25549" stroke-width="4" mask="url(#path-2-inside-1)"/>
</svg>
