<svg width="165" height="209" viewBox="0 0 165 209" fill="none" xmlns="http://www.w3.org/2000/svg">
<path d="M45.5 94.3128C45.5 94.3128 56.875 102.844 82.4688 102.844C108.062 102.844 119.438 94.3128 119.438 94.3128V122.75L82.4688 128.438L45.5 122.75V94.3128Z" fill="white"/>
<path d="M113.75 37.4375V20.375C113.75 14.0928 108.657 9 102.375 9H62.5625C56.2803 9 51.1875 14.0928 51.1875 20.375V37.4375" stroke="white" stroke-width="17.0625" stroke-linecap="round"/>
<path d="M113.093 131.443C121.218 125.086 127.148 116.368 130.06 106.502C132.971 96.6366 132.717 86.114 129.335 76.3982C125.952 66.6824 119.609 58.2566 111.187 52.2931C102.766 46.3297 92.6842 43.125 82.3458 43.125C72.0075 43.125 61.9261 46.3297 53.5044 52.2931C45.0827 58.2566 38.7394 66.6824 35.3569 76.3982C31.9745 86.114 31.7211 96.6366 34.6322 106.502C37.5432 116.368 43.4738 125.086 51.5988 131.443C37.6763 136.991 25.5284 146.191 16.4503 158.065C7.37206 169.938 1.70389 184.039 0.0499895 198.864C-0.0697282 199.946 0.0260925 201.042 0.331979 202.087C0.637865 203.133 1.14783 204.108 1.83275 204.958C3.21601 206.673 5.22794 207.772 7.42595 208.013C9.62396 208.253 11.828 207.615 13.5532 206.24C15.2784 204.864 16.3834 202.863 16.6252 200.677C18.445 184.566 26.1699 169.685 38.3239 158.88C50.478 148.074 66.209 142.101 82.5116 142.101C98.8141 142.101 114.545 148.074 126.699 158.88C138.853 169.685 146.578 184.566 148.398 200.677C148.623 202.703 149.595 204.573 151.125 205.928C152.656 207.282 154.637 208.025 156.686 208.013H157.597C159.77 207.764 161.755 206.672 163.121 204.973C164.487 203.275 165.123 201.109 164.89 198.946C163.229 184.079 157.53 169.942 148.405 158.051C139.28 146.159 127.073 136.961 113.093 131.443ZM82.3458 125.592C75.7893 125.592 69.38 123.658 63.9285 120.035C58.4769 116.413 54.2279 111.264 51.7189 105.24C49.2098 99.2153 48.5533 92.5865 49.8324 86.1912C51.1115 79.7959 54.2688 73.9215 58.905 69.3108C63.5411 64.7001 69.448 61.5601 75.8785 60.288C82.3091 59.0159 88.9745 59.6688 95.0319 62.1641C101.089 64.6594 106.267 68.8851 109.909 74.3067C113.552 79.7284 115.496 86.1025 115.496 92.623C115.496 101.367 112.004 109.752 105.787 115.935C99.5698 122.118 91.1379 125.592 82.3458 125.592Z" fill="white"/>
</svg>
