<svg width="21" height="21" viewBox="0 0 21 21" fill="none" xmlns="http://www.w3.org/2000/svg">
<path fill-rule="evenodd" clip-rule="evenodd" d="M19.0765 0H1.11396C0.498736 0 0 0.498736 0 1.11396V19.0765C0 19.6917 0.498736 20.1905 1.11396 20.1905H10.7915V12.3823H8.16322V9.32591H10.7915V7.07711C10.7915 4.46975 12.3858 3.04946 14.7112 3.04946C15.4948 3.04775 16.278 3.08726 17.0575 3.16782V5.89353H15.4562C14.189 5.89353 13.9419 6.49228 13.9419 7.37649V9.32243H16.9704L16.5771 12.3788H13.9245V20.1905H19.0765C19.6917 20.1905 20.1905 19.6917 20.1905 19.0765V1.11396C20.1905 0.498736 19.6917 0 19.0765 0Z" fill="black"/>
</svg>
