<svg width="28" height="28" viewBox="0 0 28 28" fill="none" xmlns="http://www.w3.org/2000/svg">
<path fill-rule="evenodd" clip-rule="evenodd" d="M5.25 0H22.75C25.6495 0 28 2.35051 28 5.25V22.75C28 25.6495 25.6495 28 22.75 28H5.25C2.35051 28 0 25.6495 0 22.75V5.25C0 2.35051 2.35051 0 5.25 0ZM19.25 18.3077H21.9722L22.75 14.6731H19.25V12.25C19.0654 11.2235 19.3543 10.4869 20.8056 10.6346H22.75V7C22.4206 7.10167 21.2909 7 20.0278 7C17.2323 7 15.3536 8.73971 15.3611 11.8462V14.6731H12.25V18.3077H15.3611V28H19.25V18.3077Z" fill="#B3B3B3"/>
</svg>
