<svg width="170" height="51" viewBox="0 0 170 51" fill="none" xmlns="http://www.w3.org/2000/svg">
<path d="M163.704 51H6.2963C2.77037 51 0 48.195 0 44.625V6.375C0 2.805 2.77037 0 6.2963 0H163.704C167.23 0 170 2.805 170 6.375V44.625C170 48.195 167.23 51 163.704 51Z" fill="black"/>
<path d="M163.704 1.00303C166.6 1.00303 168.993 3.38522 168.993 6.26892V43.8824C168.993 46.7661 166.6 49.1483 163.704 49.1483H6.2963C3.4 49.1483 1.00741 46.7661 1.00741 43.8824V6.26892C1.00741 3.38522 3.4 1.00303 6.2963 1.00303H163.704ZM163.704 0H6.2963C2.77037 0 0 2.8837 0 6.26892V43.8824C0 47.393 2.77037 50.1514 6.2963 50.1514H163.704C167.23 50.1514 170 47.393 170 43.8824V6.26892C170 2.8837 167.23 0 163.704 0Z" fill="black"/>
<path d="M59.6888 13.0066C59.6888 14.0097 59.4369 14.8873 58.8073 15.5142C58.0518 16.2665 57.1703 16.6426 56.0369 16.6426C54.9036 16.6426 54.0221 16.2665 53.2666 15.5142C52.511 14.7619 52.1332 13.8843 52.1332 12.7559C52.1332 11.6275 52.511 10.7498 53.2666 9.99755C54.0221 9.24528 54.9036 8.86914 56.0369 8.86914C56.5406 8.86914 57.0443 8.99452 57.5481 9.24528C58.0518 9.49603 58.4295 9.74679 58.6814 10.1229L58.0518 10.7498C57.5481 10.1229 56.9184 9.87217 56.0369 9.87217C55.2814 9.87217 54.5258 10.1229 54.0221 10.7498C53.3925 11.2513 53.1406 12.0036 53.1406 12.8813C53.1406 13.7589 53.3925 14.5112 54.0221 15.0127C54.6518 15.5142 55.2814 15.8903 56.0369 15.8903C56.9184 15.8903 57.5481 15.6396 58.1777 15.0127C58.5555 14.6365 58.8073 14.135 58.8073 13.5081H56.0369V12.5051H59.6888V13.0066ZM65.4814 9.87217H62.0814V12.2544H65.2295V13.132H62.0814V15.5142H65.4814V16.5172H61.074V8.99452H65.4814V9.87217ZM69.6369 16.5172H68.6295V9.87217H66.4888V8.99452H71.7777V9.87217H69.6369V16.5172ZM75.4295 16.5172V8.99452H76.4369V16.5172H75.4295ZM80.7184 16.5172H79.711V9.87217H77.5703V8.99452H82.7332V9.87217H80.5925V16.5172H80.7184ZM92.6814 15.5142C91.9258 16.2665 91.0443 16.6426 89.911 16.6426C88.7777 16.6426 87.8962 16.2665 87.1406 15.5142C86.3851 14.7619 86.0073 13.8843 86.0073 12.7559C86.0073 11.6275 86.3851 10.7498 87.1406 9.99755C87.8962 9.24528 88.7777 8.86914 89.911 8.86914C91.0443 8.86914 91.9258 9.24528 92.6814 9.99755C93.4369 10.7498 93.8147 11.6275 93.8147 12.7559C93.8147 13.8843 93.4369 14.7619 92.6814 15.5142ZM87.8962 14.8873C88.3999 15.3888 89.1555 15.765 89.911 15.765C90.6666 15.765 91.4221 15.5142 91.9258 14.8873C92.4295 14.3858 92.8073 13.6335 92.8073 12.7559C92.8073 11.8782 92.5555 11.126 91.9258 10.6244C91.4221 10.1229 90.6666 9.74679 89.911 9.74679C89.1555 9.74679 88.3999 9.99755 87.8962 10.6244C87.3925 11.126 87.0147 11.8782 87.0147 12.7559C87.0147 13.6335 87.2666 14.3858 87.8962 14.8873ZM95.1999 16.5172V8.99452H96.3332L99.9851 14.8873V8.99452H100.992V16.5172H99.9851L96.0814 10.3737V16.5172H95.1999Z" fill="white"/>
<path d="M85.7556 27.55C82.7333 27.55 80.3407 29.8068 80.3407 32.9413C80.3407 35.9504 82.7333 38.3326 85.7556 38.3326C88.7778 38.3326 91.1704 36.0757 91.1704 32.9413C91.1704 29.6814 88.7778 27.55 85.7556 27.55ZM85.7556 36.0757C84.1185 36.0757 82.7333 34.6966 82.7333 32.8159C82.7333 30.9352 84.1185 29.5561 85.7556 29.5561C87.3926 29.5561 88.7778 30.8098 88.7778 32.8159C88.7778 34.6966 87.3926 36.0757 85.7556 36.0757ZM74.0444 27.55C71.0222 27.55 68.6296 29.8068 68.6296 32.9413C68.6296 35.9504 71.0222 38.3326 74.0444 38.3326C77.0667 38.3326 79.4593 36.0757 79.4593 32.9413C79.4593 29.6814 77.0667 27.55 74.0444 27.55ZM74.0444 36.0757C72.4074 36.0757 71.0222 34.6966 71.0222 32.8159C71.0222 30.9352 72.4074 29.5561 74.0444 29.5561C75.6815 29.5561 77.0667 30.8098 77.0667 32.8159C77.0667 34.6966 75.6815 36.0757 74.0444 36.0757ZM60.0667 29.1799V31.4367H65.4815C65.3556 32.6905 64.8519 33.6936 64.2222 34.3204C63.4667 35.0727 62.2074 35.9504 60.0667 35.9504C56.6667 35.9504 54.1481 33.3174 54.1481 29.9322C54.1481 26.547 56.7926 23.914 60.0667 23.914C61.8296 23.914 63.2148 24.6663 64.2222 25.544L65.8593 23.914C64.4741 22.6603 62.7111 21.6572 60.1926 21.6572C55.6593 21.6572 51.7556 25.4186 51.7556 29.9322C51.7556 34.4458 55.6593 38.2072 60.1926 38.2072C62.7111 38.2072 64.4741 37.4549 65.9852 35.825C67.4963 34.3204 68 32.189 68 30.5591C68 30.0576 68 29.5561 67.8741 29.1799H60.0667ZM117.237 30.9352C116.733 29.6814 115.474 27.55 112.704 27.55C109.933 27.55 107.667 29.6814 107.667 32.9413C107.667 35.9504 109.933 38.3326 112.956 38.3326C115.348 38.3326 116.859 36.828 117.363 35.9504L115.6 34.6966C114.97 35.5742 114.215 36.2011 112.956 36.2011C111.696 36.2011 110.941 35.6996 110.311 34.5712L117.489 31.5621L117.237 30.9352ZM109.933 32.6905C109.933 30.6845 111.57 29.5561 112.704 29.5561C113.585 29.5561 114.467 30.0576 114.719 30.6845L109.933 32.6905ZM104.015 37.831H106.407V22.1587H104.015V37.831ZM100.237 28.6784C99.6074 28.0515 98.6 27.4246 97.3407 27.4246C94.6963 27.4246 92.1778 29.8068 92.1778 32.8159C92.1778 35.825 94.5704 38.0818 97.3407 38.0818C98.6 38.0818 99.6074 37.4549 100.111 36.828H100.237V37.5803C100.237 39.5863 99.1037 40.7147 97.3407 40.7147C95.9556 40.7147 94.9481 39.7117 94.6963 38.8341L92.6815 39.7117C93.3111 41.0909 94.8222 42.8462 97.4667 42.8462C100.237 42.8462 102.504 41.2163 102.504 37.3295V27.8008H100.237V28.6784ZM97.4667 36.0757C95.8296 36.0757 94.4444 34.6966 94.4444 32.8159C94.4444 30.9352 95.8296 29.5561 97.4667 29.5561C99.1037 29.5561 100.363 30.9352 100.363 32.8159C100.363 34.6966 99.1037 36.0757 97.4667 36.0757ZM128.193 22.1587H122.526V37.831H124.919V31.9383H128.193C130.837 31.9383 133.356 30.0576 133.356 27.0485C133.356 24.0394 130.837 22.1587 128.193 22.1587ZM128.319 29.6814H124.919V24.2902H128.319C130.081 24.2902 131.089 25.7947 131.089 26.9231C130.963 28.3023 129.956 29.6814 128.319 29.6814ZM142.8 27.4246C141.037 27.4246 139.274 28.1769 138.644 29.8068L140.785 30.6845C141.289 29.8068 142.044 29.5561 142.926 29.5561C144.185 29.5561 145.319 30.3083 145.444 31.5621V31.6875C145.067 31.4367 144.059 31.0606 143.052 31.0606C140.785 31.0606 138.519 32.3144 138.519 34.5712C138.519 36.7026 140.407 38.0818 142.422 38.0818C144.059 38.0818 144.815 37.3295 145.444 36.5773H145.57V37.831H147.837V31.8129C147.585 29.0546 145.444 27.4246 142.8 27.4246ZM142.548 36.0757C141.793 36.0757 140.659 35.6996 140.659 34.6966C140.659 33.4428 142.044 33.0667 143.178 33.0667C144.185 33.0667 144.689 33.3174 145.319 33.5682C145.067 35.0727 143.807 36.0757 142.548 36.0757ZM155.77 27.8008L153.126 34.5712H153L150.23 27.8008H147.711L151.867 37.3295L149.474 42.5954H151.867L158.289 27.8008H155.77ZM134.615 37.831H137.007V22.1587H134.615V37.831Z" fill="white"/>
<path d="M13.0962 10.0513C12.7185 10.4274 12.5925 11.0543 12.5925 11.8066V39.5152C12.5925 40.2675 12.8444 40.8944 13.2222 41.2705L13.3481 41.3959L28.9629 25.8489V25.5982L13.0962 10.0513Z" fill="url(#paint0_linear)"/>
<path d="M34 31.1147L28.837 25.9742V25.598L34 20.4575L34.1259 20.5829L40.2963 24.0935C42.0593 25.0965 42.0593 26.7264 40.2963 27.7295L34 31.1147Z" fill="url(#paint1_linear)"/>
<path d="M34.1259 30.989L28.8371 25.7231L13.0963 41.3954C13.7259 42.0223 14.6074 42.0223 15.7408 41.5208L34.1259 30.989Z" fill="url(#paint2_linear)"/>
<path d="M34.1259 20.4577L15.7408 10.0513C14.6074 9.42442 13.7259 9.5498 13.0963 10.1767L28.8371 25.7236L34.1259 20.4577Z" fill="url(#paint3_linear)"/>
<path opacity="0.2" d="M34 30.8638L15.7408 41.1448C14.7334 41.7717 13.8519 41.6463 13.2222 41.1448L13.0963 41.2702L13.2222 41.3956C13.8519 41.8971 14.7334 42.0224 15.7408 41.3956L34 30.8638Z" fill="black"/>
<path opacity="0.2" d="M13.0962 41.1447C12.7185 40.7686 12.5925 40.1417 12.5925 39.3894V39.5148C12.5925 40.267 12.8444 40.8939 13.2222 41.2701V41.1447H13.0962ZM40.2962 27.3531L33.9999 30.8637L34.1259 30.989L40.2962 27.4784C41.1777 26.9769 41.5555 26.35 41.5555 25.7231C41.5555 26.35 41.0518 26.8515 40.2962 27.3531Z" fill="black"/>
<path opacity="0.2" d="M15.7412 10.1761L40.2967 24.0931C41.0523 24.5946 41.556 25.0962 41.556 25.723C41.556 25.0962 41.1782 24.4693 40.2967 23.9677L15.7412 10.0507C13.9782 9.04772 12.593 9.79999 12.593 11.806V11.9314C12.593 10.0507 13.9782 9.1731 15.7412 10.1761Z" fill="white"/>
<defs>
<linearGradient id="paint0_linear" x1="27.4518" y1="11.5683" x2="6.40972" y2="32.701" gradientUnits="userSpaceOnUse">
<stop stop-color="#00A0FF"/>
<stop offset="0.007" stop-color="#00A1FF"/>
<stop offset="0.26" stop-color="#00BEFF"/>
<stop offset="0.512" stop-color="#00D2FF"/>
<stop offset="0.76" stop-color="#00DFFF"/>
<stop offset="1" stop-color="#00E3FF"/>
</linearGradient>
<linearGradient id="paint1_linear" x1="42.6058" y1="25.7247" x2="12.1355" y2="25.7247" gradientUnits="userSpaceOnUse">
<stop stop-color="#FFE000"/>
<stop offset="0.409" stop-color="#FFBD00"/>
<stop offset="0.775" stop-color="#FFA500"/>
<stop offset="1" stop-color="#FF9C00"/>
</linearGradient>
<linearGradient id="paint2_linear" x1="31.2636" y1="28.6018" x2="2.7303" y2="57.2598" gradientUnits="userSpaceOnUse">
<stop stop-color="#FF3A44"/>
<stop offset="1" stop-color="#C31162"/>
</linearGradient>
<linearGradient id="paint3_linear" x1="9.18883" y1="0.868596" x2="21.9309" y2="13.6663" gradientUnits="userSpaceOnUse">
<stop stop-color="#32A071"/>
<stop offset="0.069" stop-color="#2DA771"/>
<stop offset="0.476" stop-color="#15CF74"/>
<stop offset="0.801" stop-color="#06E775"/>
<stop offset="1" stop-color="#00F076"/>
</linearGradient>
</defs>
</svg>
