<svg width="30" height="30" viewBox="0 0 30 30" fill="none" xmlns="http://www.w3.org/2000/svg">
<path d="M8.92296 9.84591C9.98498 9.84591 10.8459 8.98498 10.8459 7.92296C10.8459 6.86094 9.98498 6 8.92296 6C7.86094 6 7 6.86094 7 7.92296C7 8.98498 7.86094 9.84591 8.92296 9.84591Z" fill="black"/>
<path d="M12.6617 11.303V21.9715H15.9741V16.6957C15.9741 15.3036 16.236 13.9554 17.9621 13.9554C19.6645 13.9554 19.6856 15.547 19.6856 16.7836V21.9724H22.9998V16.1218C22.9998 13.2479 22.381 11.0393 19.022 11.0393C17.4093 11.0393 16.3283 11.9243 15.8862 12.7619H15.8414V11.303H12.6617ZM7.26367 11.303H10.5814V21.9715H7.26367V11.303Z" fill="black"/>
</svg>
