<svg width="43" height="81" viewBox="0 0 43 81" fill="none" xmlns="http://www.w3.org/2000/svg">
<path d="M0.211211 65.0506L3.10235 0C5.31888 18.5996 10.0989 57.2445 11.4866 63.0268C12.8744 68.809 18.8109 69.0981 21.6056 68.5199V80.6627C1.46378 80.6627 -0.848873 71.1219 0.211211 65.0506Z" fill="#0E4890"/>
<path d="M42.7888 65.0506L39.8977 0C37.6811 18.5996 32.9011 57.2445 31.5134 63.0268C30.1256 68.809 24.1891 69.0981 21.3944 68.5199V80.6627C41.5362 80.6627 43.8489 71.1219 42.7888 65.0506Z" fill="#0E4890"/>
<path d="M22.2618 30.9351L26.0202 24.2855L21.3944 22.2617L16.7686 24.2855L20.5271 30.9351H22.2618Z" fill="#0E4890"/>
<path d="M16.7686 69.0982L21.3944 22.5509L26.0202 69.0982H16.7686Z" fill="#0E4890"/>
<path d="M16.7686 22.84L21.3944 14.4557L26.0202 22.84L21.3944 19.6597L16.7686 22.84Z" fill="#0E4890"/>
</svg>
