<svg width="90" height="58" viewBox="0 0 90 58" fill="none" xmlns="http://www.w3.org/2000/svg">
<path d="M40.298 53.9738C39.7509 53.9738 39.3101 53.823 38.9758 53.5214C38.6719 53.1896 38.5199 52.7522 38.5199 52.2093V30.9907C38.5199 30.4478 38.6719 30.0255 38.9758 29.7239C39.3101 29.3921 39.7509 29.2262 40.298 29.2262C40.8147 29.2262 41.225 29.3921 41.5289 29.7239C41.8633 30.0255 42.0304 30.4478 42.0304 30.9907V52.2093C42.0304 52.7522 41.8633 53.1896 41.5289 53.5214C41.225 53.823 40.8147 53.9738 40.298 53.9738Z" fill="#144A8E"/>
<path d="M54.9425 54.2C53.1493 54.2 51.5384 53.9285 50.1098 53.3856C48.6813 52.8427 47.5415 52.0736 46.6905 51.0783C45.8698 50.0829 45.4595 48.9066 45.4595 47.5494C45.4595 46.4032 45.7635 45.3627 46.3713 44.4276C47.0096 43.4926 48.0126 42.6783 49.3804 41.9846C50.7785 41.2607 52.6022 40.6575 54.8514 40.1749C56.8878 39.7224 58.2859 39.1494 59.0458 38.4557C59.836 37.7318 60.2312 36.8269 60.2312 35.7411C60.2312 34.6855 59.7752 33.8259 58.8634 33.1623C57.9516 32.4686 56.6902 32.1217 55.0793 32.1217C53.8027 32.1217 52.6174 32.3479 51.5232 32.8004C50.4594 33.2226 49.5779 33.8409 48.8789 34.6553C48.5445 35.0172 48.1646 35.2434 47.7391 35.3339C47.3136 35.4244 46.9488 35.3792 46.6449 35.1982C46.1586 34.9268 45.8698 34.5799 45.7786 34.1576C45.6875 33.7052 45.7938 33.298 46.0978 32.9361C46.9792 31.7598 48.1798 30.8097 49.6995 30.0858C51.2192 29.3619 52.9973 29 55.0337 29C56.7054 29 58.1947 29.2715 59.5017 29.8144C60.8086 30.3271 61.8269 31.0962 62.5563 32.1217C63.2858 33.1472 63.6505 34.3989 63.6505 35.8768C63.6505 37.4452 63.0426 38.8478 61.8269 40.0844C60.6111 41.2908 58.5899 42.2108 55.7632 42.8442C53.1797 43.4172 51.4016 44.0657 50.429 44.7896C49.4564 45.5135 48.9701 46.4183 48.9701 47.5041C48.9701 48.6804 49.4412 49.5702 50.3834 50.1734C51.356 50.7465 52.8453 51.033 54.8514 51.033C56.3711 51.033 57.7236 50.8521 58.909 50.4901C60.1248 50.1282 61.1278 49.4948 61.918 48.5899C62.222 48.2582 62.5867 48.047 63.0122 47.9566C63.4377 47.8359 63.8633 47.9415 64.2888 48.2733C64.6839 48.605 64.8967 48.982 64.9271 49.4043C64.9575 49.8266 64.8055 50.2187 64.4712 50.5806C63.4377 51.6966 62.0396 52.5864 60.2767 53.2499C58.5139 53.8833 56.7358 54.2 54.9425 54.2Z" fill="#144A8E"/>
<path d="M80.8067 54.2C78.4056 54.2 76.2628 53.6571 74.3783 52.5713C72.5243 51.4553 71.0501 49.9472 69.9559 48.047C68.8921 46.1469 68.3602 44.0054 68.3602 41.6226C68.3602 39.2097 68.8769 37.0531 69.9103 35.153C70.9437 33.2528 72.3571 31.7598 74.1503 30.674C75.9436 29.558 78.0104 29 80.3508 29C82.2048 29 83.9069 29.3619 85.457 30.0858C87.0375 30.8097 88.4205 31.8955 89.6059 33.3433C89.9402 33.7052 90.0618 34.0973 89.9706 34.5196C89.8794 34.9117 89.6211 35.2585 89.1955 35.5601C88.8612 35.8014 88.4813 35.8919 88.0557 35.8316C87.6606 35.7411 87.3111 35.5149 87.0071 35.153C85.2443 33.1623 83.0255 32.167 80.3508 32.167C78.6487 32.167 77.1442 32.5741 75.8372 33.3885C74.5607 34.2029 73.5577 35.3189 72.8282 36.7364C72.1291 38.154 71.7796 39.7828 71.7796 41.6226C71.7796 43.4323 72.1595 45.046 72.9194 46.4636C73.6792 47.8812 74.743 48.9971 76.1108 49.8115C77.4785 50.6259 79.0438 51.033 80.8067 51.033C81.9921 51.033 83.0711 50.8822 84.0437 50.5806C85.0467 50.2488 85.9281 49.7512 86.688 49.0876C87.0527 48.786 87.4327 48.6201 87.8278 48.5899C88.2229 48.5598 88.5876 48.6804 88.922 48.9519C89.2867 49.2837 89.4843 49.6607 89.5147 50.0829C89.5755 50.5052 89.4387 50.8671 89.1044 51.1688C86.8856 53.1896 84.1197 54.2 80.8067 54.2Z" fill="#144A8E"/>
<path d="M39.0483 25.0314C39.4006 25.3837 39.819 25.5598 40.3034 25.5598C40.8098 25.5598 41.2392 25.3837 41.5915 25.0314C41.9438 24.6791 42.1199 24.2497 42.1199 23.7433C42.1199 23.1929 41.9327 22.7635 41.5584 22.4553C41.2061 22.125 40.7988 21.9598 40.3364 21.9598C39.852 21.9598 39.4226 22.125 39.0483 22.4553C38.696 22.7635 38.5199 23.1929 38.5199 23.7433C38.5199 24.2497 38.696 24.6791 39.0483 25.0314Z" fill="#FF0000"/>
<path d="M0.0124618 46.7419L2.13208 0C3.75711 13.3647 7.26154 41.1329 8.27896 45.2877C9.29637 49.4426 13.6486 49.6503 15.6976 49.2348V57.96C0.930771 57.96 -0.142383 51.3 0.0124618 46.7419Z" fill="#144A8E"/>
<path d="M31.0228 46.7419L28.9032 0C27.2782 13.3647 23.7737 41.1329 22.7563 45.2877C21.7389 49.4426 17.3866 49.6503 15.3377 49.2348V57.96C30.1045 57.96 31.1777 51.48 31.0228 46.7419Z" fill="#144A8E"/>
<path d="M16.1588 21.5999L18.9375 16.0799L15.5175 14.3999L12.0975 16.0799L14.8763 21.5999H16.1588Z" fill="#144A8E"/>
<path d="M12.109 49.4041L15.4887 15.396L18.8684 49.4041H12.109Z" fill="#144A8E"/>
<path d="M12.0975 15.48L15.5175 10.8L18.9375 15.48L15.5175 13.7049L12.0975 15.48Z" fill="#144A8E"/>
</svg>
