<svg width="75" height="68" viewBox="0 0 75 68" fill="none" xmlns="http://www.w3.org/2000/svg">
<path d="M65.0317 14.8001C74.4991 29.474 81.1003 50.3395 66.3186 60.0828C51.537 69.8261 12.7572 70.3812 3.28979 55.7074C-6.17763 41.0335 6.3432 15.6157 21.1249 5.87245C35.9065 -3.87081 55.5643 0.126259 65.0317 14.8001Z" fill="url(#paint0_linear)"/>
<path d="M50.5909 19.6362H25.7727C24.3622 19.6362 23.0095 20.2019 22.0122 21.2089C21.0148 22.2158 20.4545 23.5815 20.4545 25.0055V42.9033C20.4545 44.3273 21.0148 45.693 22.0122 46.7C23.0095 47.7069 24.3622 48.2726 25.7727 48.2726H50.5909C52.0014 48.2726 53.3541 47.7069 54.3514 46.7C55.3488 45.693 55.9091 44.3273 55.9091 42.9033V25.0055C55.9091 23.5815 55.3488 22.2158 54.3514 21.2089C53.3541 20.2019 52.0014 19.6362 50.5909 19.6362ZM25.7727 23.2158H50.5909C51.061 23.2158 51.5119 23.4043 51.8444 23.74C52.1769 24.0756 52.3636 24.5309 52.3636 25.0055L38.1818 33.7396L24 25.0055C24 24.5309 24.1868 24.0756 24.5192 23.74C24.8517 23.4043 25.3026 23.2158 25.7727 23.2158ZM52.3636 42.9033C52.3636 43.378 52.1769 43.8332 51.8444 44.1688C51.5119 44.5045 51.061 44.693 50.5909 44.693H25.7727C25.3026 44.693 24.8517 44.5045 24.5192 44.1688C24.1868 43.8332 24 43.378 24 42.9033V29.0862L37.26 37.2655C37.5295 37.4226 37.8352 37.5053 38.1463 37.5053C38.4575 37.5053 38.7632 37.4226 39.0327 37.2655L52.3636 29.0862V42.9033Z" fill="white"/>
<defs>
<linearGradient id="paint0_linear" x1="-37.5" y1="33.8267" x2="28.5913" y2="108.296" gradientUnits="userSpaceOnUse">
<stop stop-color="#9C09DB"/>
<stop offset="1" stop-color="#1C0FD7"/>
</linearGradient>
</defs>
</svg>
