<svg width="14" height="11" viewBox="0 0 14 11" fill="none" xmlns="http://www.w3.org/2000/svg">
<path d="M12.2523 3.30809C12.0878 3.42413 11.5921 3.76878 10.7651 4.34186C9.93809 4.91494 9.30454 5.35619 8.86443 5.66565C8.81608 5.69957 8.71335 5.77331 8.55619 5.88697C8.39901 6.0007 8.26841 6.0926 8.16449 6.16271C8.06049 6.23279 7.93476 6.3114 7.78719 6.39843C7.63966 6.48538 7.5006 6.55078 7.37002 6.59408C7.23941 6.63773 7.11852 6.65935 7.0073 6.65935H7.00001H6.99269C6.88148 6.65935 6.76053 6.6377 6.62993 6.59408C6.4994 6.55078 6.36021 6.4853 6.21281 6.39843C6.06533 6.3113 5.93961 6.23276 5.83561 6.16271C5.73161 6.0926 5.60111 6.0007 5.44388 5.88697C5.28675 5.77321 5.18389 5.69957 5.13554 5.66565C4.69067 5.35619 3.55887 4.57026 1.74049 3.30794C1.38746 3.06139 1.09251 2.7639 0.85557 2.41567C0.618452 2.06759 0.50002 1.70244 0.50002 1.32041C0.50002 1.00117 0.614945 0.727893 0.844695 0.500608C1.07442 0.273272 1.3465 0.159668 1.66076 0.159668H12.3393C12.7117 0.159668 12.9983 0.285392 13.199 0.536841C13.3997 0.788341 13.5 1.1027 13.5 1.4799C13.5 1.78458 13.367 2.11475 13.101 2.4702C12.8351 2.82567 12.5521 3.10499 12.2523 3.30809Z" fill="#F25549"/>
<path d="M1.22555 4.08424C2.81169 5.1578 4.01609 5.99213 4.83815 6.58706C5.11381 6.79011 5.33744 6.94861 5.50918 7.06219C5.68092 7.17584 5.90932 7.29191 6.19472 7.41035C6.48001 7.52896 6.74589 7.58808 6.99259 7.58808H6.99998H7.00728C7.25392 7.58808 7.51996 7.52896 7.80525 7.41035C8.09054 7.29191 8.3191 7.17584 8.49079 7.06219C8.66243 6.94861 8.88613 6.79011 9.16177 6.58706C9.81471 6.1083 11.0165 5.27392 12.7672 4.08424C13.043 3.90058 13.2872 3.69007 13.5 3.45312V9.213C13.5 9.53239 13.3864 9.80551 13.1591 10.0328C12.9318 10.2602 12.6585 10.3739 12.3393 10.3739H1.66066C1.34152 10.3739 1.06824 10.2602 0.840932 10.0328C0.613545 9.80544 0.499992 9.53242 0.499992 9.213V3.45312C0.707991 3.68516 0.949735 3.89568 1.22555 4.08424Z" fill="#F25549"/>
</svg>
