<svg width="28" height="22" viewBox="0 0 28 22" fill="none" xmlns="http://www.w3.org/2000/svg">
<path d="M2.51737 9.98474H0.803416C0.359341 9.98474 0 10.3441 0 10.7882V20.4291C0 20.8732 0.359341 21.2326 0.803416 21.2326H2.51737C3.84643 21.2326 4.92762 20.1514 4.92762 18.8223V12.395C4.92762 11.0659 3.84649 9.98474 2.51737 9.98474Z" fill="#333333"/>
<path d="M27.1822 11.5434C27.0858 11.3828 26.9573 11.2542 26.8127 11.1417C26.2211 10.6242 25.2244 10.6731 24.6435 11.3024L20.9959 15.5123L20.8835 15.6408C20.4336 16.1389 19.7908 16.4121 19.116 16.4121H12.8815C12.4315 16.4121 12.0781 16.0586 12.0781 15.6087C12.0781 15.1588 12.4315 14.8053 12.8815 14.8053H17.7823C18.6661 14.8053 19.3892 14.0822 19.3892 13.1985V13.1824C19.3731 12.2986 18.6661 11.5916 17.7823 11.5916H14.874C14.3921 11.5916 13.8758 11.4147 13.46 11.0613C11.4997 9.34202 8.63946 9.22955 6.53452 10.6918V20.5738C8.12528 21.0077 9.76425 21.2326 11.4192 21.2326H18.5858C20.3532 21.2326 22.0244 20.397 23.0849 18.983L26.9413 13.8412C27.5039 13.1026 27.5463 12.0898 27.1822 11.5434Z" fill="#333333"/>
<circle cx="16.9344" cy="4.83838" r="4.83838" fill="#333333"/>
</svg>
