<svg width="83" height="32" viewBox="0 0 83 32" fill="none" xmlns="http://www.w3.org/2000/svg">
<path d="M40.9998 6.4C40.5755 6.4 40.1685 6.56857 39.8684 6.86863C39.5684 7.16869 39.3998 7.57565 39.3998 8V11.2C39.3998 11.6243 39.5684 12.0313 39.8684 12.3314C40.1685 12.6314 40.5755 12.8 40.9998 12.8C41.4241 12.8 41.8311 12.6314 42.1312 12.3314C42.4312 12.0313 42.5998 11.6243 42.5998 11.2V8C42.5998 7.57565 42.4312 7.16869 42.1312 6.86863C41.8311 6.56857 41.4241 6.4 40.9998 6.4ZM40.9998 0C38.0294 0 35.1806 1.18 33.0802 3.2804C30.9798 5.38081 29.7998 8.22958 29.7998 11.2V20.8C29.7998 23.7704 30.9798 26.6192 33.0802 28.7196C35.1806 30.82 38.0294 32 40.9998 32C43.9702 32 46.819 30.82 48.9194 28.7196C51.0198 26.6192 52.1998 23.7704 52.1998 20.8V11.2C52.1998 8.22958 51.0198 5.38081 48.9194 3.2804C46.819 1.18 43.9702 0 40.9998 0ZM48.9998 20.8C48.9998 22.9217 48.1569 24.9566 46.6567 26.4569C45.1564 27.9571 43.1215 28.8 40.9998 28.8C38.8781 28.8 36.8432 27.9571 35.3429 26.4569C33.8427 24.9566 32.9998 22.9217 32.9998 20.8V11.2C32.9998 9.07827 33.8427 7.04344 35.3429 5.54315C36.8432 4.04285 38.8781 3.2 40.9998 3.2C43.1215 3.2 45.1564 4.04285 46.6567 5.54315C48.1569 7.04344 48.9998 9.07827 48.9998 11.2V20.8Z" fill="#BDBDBD"/>
<path d="M0.292698 15.2929C-0.097826 15.6834 -0.097826 16.3166 0.292698 16.7071L6.65666 23.0711C7.04718 23.4616 7.68035 23.4616 8.07087 23.0711C8.4614 22.6805 8.4614 22.0474 8.07087 21.6569L2.41402 16L8.07087 10.3431C8.4614 9.95262 8.4614 9.31946 8.07087 8.92893C7.68035 8.53841 7.04718 8.53841 6.65666 8.92893L0.292698 15.2929ZM21.7998 15L0.999805 15L0.999806 17L21.7998 17L21.7998 15Z" fill="#BDBDBD"/>
<path d="M81.7088 15.2929C82.0993 15.6834 82.0993 16.3166 81.7088 16.7071L75.3448 23.0711C74.9543 23.4616 74.3211 23.4616 73.9306 23.0711C73.5401 22.6805 73.5401 22.0474 73.9306 21.6569L79.5874 16L73.9306 10.3431C73.5401 9.95262 73.5401 9.31946 73.9306 8.92893C74.3211 8.53841 74.9543 8.53841 75.3448 8.92893L81.7088 15.2929ZM60.2017 15L81.0017 15L81.0017 17L60.2017 17L60.2017 15Z" fill="#BDBDBD"/>
</svg>
