<svg width="217" height="165" viewBox="0 0 217 165" fill="none" xmlns="http://www.w3.org/2000/svg">
<path d="M111.161 84.6032C116.41 80.1221 120.62 74.5797 123.505 68.3523C126.391 62.1248 127.884 55.358 127.884 48.511C127.884 35.6451 122.702 23.3061 113.478 14.2086C104.253 5.11097 91.7427 1.73583e-06 78.6978 1.73583e-06C65.6528 1.73583e-06 53.1421 5.11097 43.9179 14.2086C34.6938 23.3061 29.5117 35.6451 29.5117 48.511C29.5116 55.358 31.005 62.1248 33.8905 68.3523C36.776 74.5797 40.986 80.1221 46.2349 84.6032C32.4642 90.7533 20.7808 100.685 12.5816 113.211C4.38243 125.736 0.014479 140.326 0 155.235C0 157.808 1.03642 160.276 2.88125 162.096C4.72609 163.915 7.22823 164.937 9.83722 164.937C12.4462 164.937 14.9484 163.915 16.7932 162.096C18.638 160.276 19.6744 157.808 19.6744 155.235C19.6744 139.796 25.893 124.989 36.962 114.072C48.031 103.155 63.0438 97.0221 78.6978 97.0221C94.3517 97.0221 109.365 103.155 120.434 114.072C131.503 124.989 137.721 139.796 137.721 155.235C137.721 157.808 138.758 160.276 140.602 162.096C142.447 163.915 144.949 164.937 147.558 164.937C150.167 164.937 152.669 163.915 154.514 162.096C156.359 160.276 157.396 157.808 157.396 155.235C157.381 140.326 153.013 125.736 144.814 113.211C136.615 100.685 124.931 90.7533 111.161 84.6032V84.6032ZM78.6978 77.6176C72.8609 77.6176 67.1551 75.9106 62.302 72.7123C57.4488 69.514 53.6662 64.9682 51.4325 59.6496C49.1989 54.3311 48.6145 48.4787 49.7532 42.8326C50.8919 37.1865 53.7026 32.0002 57.8299 27.9295C61.9572 23.8589 67.2156 21.0868 72.9403 19.9637C78.665 18.8406 84.5988 19.417 89.9914 21.62C95.3839 23.823 99.993 27.5537 103.236 32.3403C106.479 37.1268 108.209 42.7543 108.209 48.511C108.209 56.2306 105.1 63.634 99.5657 69.0925C94.0312 74.5511 86.5247 77.6176 78.6978 77.6176ZM174.512 80.7223C180.808 73.7303 184.92 65.0926 186.354 55.8492C187.789 46.6057 186.483 37.1505 182.596 28.6215C178.709 20.0926 172.405 12.8534 164.444 7.77557C156.482 2.6977 147.202 -0.00249929 137.721 1.73583e-06C135.112 1.73583e-06 132.61 1.0222 130.765 2.84171C128.92 4.66123 127.884 7.12902 127.884 9.70221C127.884 12.2754 128.92 14.7432 130.765 16.5627C132.61 18.3822 135.112 19.4044 137.721 19.4044C145.548 19.4044 153.054 22.471 158.589 27.9295C164.124 33.3881 167.233 40.7915 167.233 48.511C167.219 53.607 165.849 58.6101 163.259 63.0199C160.67 67.4297 156.952 71.0918 152.477 73.6397C151.018 74.4695 149.8 75.6545 148.939 77.0815C148.078 78.5085 147.602 80.1295 147.558 81.7896C147.517 83.4367 147.902 85.067 148.676 86.5268C149.451 87.9866 150.59 89.2278 151.985 90.1335L155.822 92.6561L157.1 93.3352C168.958 98.8821 178.962 107.656 185.933 118.622C192.904 129.589 196.553 142.292 196.449 155.235C196.449 157.808 197.486 160.276 199.331 162.096C201.175 163.915 203.678 164.937 206.287 164.937C208.896 164.937 211.398 163.915 213.242 162.096C215.087 160.276 216.124 157.808 216.124 155.235C216.204 140.347 212.423 125.685 205.14 112.643C197.857 99.6016 187.314 88.6133 174.512 80.7223V80.7223Z" fill="white"/>
</svg>
