<svg width="75" height="67" viewBox="0 0 75 67" fill="none" xmlns="http://www.w3.org/2000/svg">
<path d="M65.0317 14.5277C74.4991 29.2016 81.1003 50.0671 66.3186 59.8103C51.537 69.5536 12.7572 70.1088 3.28979 55.4349C-6.17763 40.761 6.3432 15.3433 21.1249 5.59999C35.9065 -4.14327 55.5643 -0.146202 65.0317 14.5277Z" fill="url(#paint0_linear)"/>
<path d="M51.5146 34.8294C51.1232 34.8294 50.714 34.7045 50.3226 34.6153C49.53 34.4401 48.751 34.2075 47.992 33.9194C47.1666 33.6183 46.2594 33.6339 45.4448 33.9633C44.6303 34.2927 43.966 34.9126 43.5798 35.7037L43.1883 36.5066C41.4555 35.5399 39.8632 34.3391 38.4559 32.938C37.0589 31.5267 35.8616 29.9297 34.8977 28.1918L35.6449 27.6922C36.4337 27.3049 37.0518 26.6386 37.3802 25.8217C37.7087 25.0048 37.7243 24.0949 37.424 23.2672C37.1415 22.5042 36.9097 21.7234 36.7302 20.9297C36.6412 20.5372 36.57 20.1268 36.5167 19.7164C36.3006 18.4596 35.6442 17.3214 34.6657 16.5069C33.6872 15.6924 32.4509 15.255 31.1793 15.2735H25.842C25.0752 15.2663 24.3159 15.4248 23.6158 15.7384C22.9156 16.0519 22.2911 16.5131 21.7846 17.0904C21.2781 17.6678 20.9016 18.3478 20.6808 19.0843C20.4599 19.8207 20.3998 20.5962 20.5046 21.358C21.4524 28.8331 24.8564 35.7784 30.1788 41.097C35.5013 46.4155 42.4388 49.8041 49.8956 50.7275H50.5717C51.8836 50.7294 53.1503 50.2467 54.1299 49.3714C54.6927 48.8665 55.1424 48.2476 55.4491 47.5556C55.7557 46.8635 55.9125 46.1141 55.909 45.3568V40.0039C55.8872 38.7645 55.4372 37.5711 54.6358 36.6274C53.8343 35.6837 52.7312 35.0482 51.5146 34.8294ZM52.4042 45.5352C52.4038 45.7885 52.3497 46.0389 52.2454 46.2696C52.1411 46.5004 51.989 46.7062 51.7993 46.8734C51.6011 47.0465 51.3687 47.1757 51.1173 47.2526C50.8659 47.3294 50.6012 47.3522 50.3404 47.3195C43.6774 46.4627 37.4885 43.4056 32.7498 38.6305C28.0111 33.8554 24.9923 27.6339 24.1696 20.9476C24.1413 20.6862 24.1661 20.4218 24.2426 20.1703C24.319 19.9188 24.4455 19.6855 24.6144 19.4845C24.7811 19.2941 24.9863 19.1416 25.2164 19.037C25.4465 18.9324 25.6961 18.8781 25.9487 18.8778H31.2861C31.6998 18.8686 32.1038 19.0043 32.4285 19.2615C32.7532 19.5188 32.9784 19.8816 33.0652 20.2874C33.1364 20.7751 33.2253 21.2569 33.3321 21.7327C33.5376 22.6733 33.8111 23.5976 34.1504 24.4983L31.6597 25.6581C31.4467 25.7561 31.2552 25.8953 31.096 26.0678C30.9368 26.2402 30.8132 26.4425 30.7322 26.663C30.6512 26.8835 30.6144 27.1179 30.624 27.3527C30.6335 27.5875 30.6893 27.8181 30.7879 28.0312C33.3484 33.5318 37.7572 37.9534 43.2417 40.5213C43.6749 40.6998 44.1607 40.6998 44.5939 40.5213C44.8157 40.4417 45.0196 40.3187 45.1937 40.1594C45.3678 40.0002 45.5086 39.8078 45.6079 39.5935L46.711 37.0955C47.6307 37.4253 48.5694 37.6994 49.522 37.9162C49.9964 38.0233 50.4768 38.1125 50.9631 38.1839C51.3677 38.2709 51.7294 38.4967 51.9859 38.8224C52.2425 39.1481 52.3778 39.5532 52.3686 39.9682L52.4042 45.5352Z" fill="white"/>
<defs>
<linearGradient id="paint0_linear" x1="-37.5" y1="33.5542" x2="28.5912" y2="108.023" gradientUnits="userSpaceOnUse">
<stop stop-color="#F2C314"/>
<stop offset="1" stop-color="#FC3832"/>
</linearGradient>
</defs>
</svg>
