<svg width="75" height="67" viewBox="0 0 75 67" fill="none" xmlns="http://www.w3.org/2000/svg">
<path d="M65.0317 14.2547C74.4991 28.9286 81.1003 49.7941 66.3186 59.5374C51.537 69.2807 12.7572 69.8358 3.28979 55.1619C-6.17763 40.4881 6.3432 15.0703 21.1249 5.32704C35.9065 -4.41622 55.5643 -0.419152 65.0317 14.2547Z" fill="url(#paint0_linear)"/>
<path d="M37.5 15C33.7026 15 30.0607 16.4941 27.3755 19.1537C24.6903 21.8133 23.1818 25.4205 23.1818 29.1818C23.1818 38.7545 35.7997 49.5681 36.3367 50.029C36.6608 50.3036 37.0734 50.4545 37.5 50.4545C37.9266 50.4545 38.3392 50.3036 38.6634 50.029C39.2898 49.5681 51.8182 38.7545 51.8182 29.1818C51.8182 25.4205 50.3097 21.8133 47.6245 19.1537C44.9393 16.4941 41.2974 15 37.5 15ZM37.5 46.2885C33.6878 42.7431 26.7614 35.1027 26.7614 29.1818C26.7614 26.3608 27.8928 23.6554 29.9066 21.6608C31.9205 19.6661 34.6519 18.5454 37.5 18.5454C40.3481 18.5454 43.0795 19.6661 45.0934 21.6608C47.1073 23.6554 48.2386 26.3608 48.2386 29.1818C48.2386 35.1027 41.3122 42.7608 37.5 46.2885ZM37.5 22.0909C36.0841 22.0909 34.6999 22.5068 33.5226 23.2859C32.3453 24.0651 31.4277 25.1725 30.8859 26.4682C30.344 27.7639 30.2022 29.1896 30.4785 30.5651C30.7547 31.9406 31.4365 33.2041 32.4378 34.1958C33.439 35.1875 34.7146 35.8628 36.1033 36.1364C37.4921 36.41 38.9315 36.2696 40.2397 35.7329C41.5478 35.1962 42.6659 34.2873 43.4526 33.1213C44.2392 31.9552 44.6591 30.5842 44.6591 29.1818C44.6591 27.3012 43.9048 25.4976 42.5622 24.1678C41.2197 22.838 39.3987 22.0909 37.5 22.0909ZM37.5 32.7272C36.792 32.7272 36.1 32.5193 35.5113 32.1297C34.9227 31.7401 34.4639 31.1864 34.1929 30.5386C33.922 29.8907 33.8511 29.1778 33.9892 28.4901C34.1274 27.8023 34.4683 27.1706 34.9689 26.6748C35.4695 26.1789 36.1073 25.8413 36.8017 25.7045C37.496 25.5677 38.2158 25.6379 38.8698 25.9062C39.5239 26.1746 40.083 26.629 40.4763 27.212C40.8696 27.7951 41.0796 28.4805 41.0796 29.1818C41.0796 30.1221 40.7024 31.0239 40.0311 31.6888C39.3598 32.3537 38.4494 32.7272 37.5 32.7272Z" fill="white"/>
<defs>
<linearGradient id="paint0_linear" x1="-37.5" y1="33.2813" x2="28.5913" y2="107.75" gradientUnits="userSpaceOnUse">
<stop stop-color="#32FBFC"/>
<stop offset="1" stop-color="#3214F2"/>
</linearGradient>
</defs>
</svg>
