<svg width="144" height="144" viewBox="0 0 144 144" fill="none" xmlns="http://www.w3.org/2000/svg">
<circle cx="72" cy="72" r="71" stroke="white" stroke-width="2"/>
<path d="M53 51.8831V92.1115C53 95.1791 56.3444 97.043 58.92 95.3733L90.2116 75.259C90.7594 74.9088 91.2107 74.4244 91.5233 73.8507C91.836 73.277 92 72.6327 92 71.9779C92 71.323 91.836 70.6787 91.5233 70.1051C91.2107 69.5314 90.7594 69.0469 90.2116 68.6967L58.92 48.6213C58.3402 48.2425 57.6699 48.0288 56.9799 48.0027C56.2898 47.9766 55.6056 48.1392 54.9994 48.4732C54.3932 48.8072 53.8874 49.3003 53.5355 49.9004C53.1836 50.5006 52.9986 51.1856 53 51.8831Z" fill="white"/>
</svg>
