<svg width="30" height="30" viewBox="0 0 30 30" fill="none" xmlns="http://www.w3.org/2000/svg">
<path d="M15.4996 7C10.8048 7 7 10.8057 7 15.4996C7 19.1002 9.24018 22.1784 12.4026 23.4172C12.3278 22.7451 12.2614 21.7105 12.4316 20.9771C12.5864 20.3134 13.4287 16.752 13.4287 16.752C13.4287 16.752 13.1743 16.2423 13.1743 15.4894C13.1743 14.3084 13.8592 13.4262 14.7126 13.4262C15.4383 13.4262 15.788 13.9707 15.788 14.6232C15.788 15.3532 15.3235 16.4431 15.0844 17.4539C14.8844 18.2996 15.5089 18.9896 16.3427 18.9896C17.8529 18.9896 19.0151 17.3969 19.0151 15.0971C19.0151 13.062 17.5526 11.6395 15.4647 11.6395C13.0458 11.6395 11.6258 13.4534 11.6258 15.3277C11.6258 16.0577 11.9075 16.8413 12.2588 17.2676C12.2887 17.2997 12.3098 17.3389 12.3201 17.3815C12.3304 17.4241 12.3295 17.4687 12.3176 17.5109C12.2529 17.7789 12.1091 18.3566 12.0819 18.4748C12.0444 18.6305 11.9585 18.6637 11.7969 18.5889C10.7359 18.0945 10.0723 16.5427 10.0723 15.2954C10.0723 12.6145 12.0198 10.1522 15.6885 10.1522C18.6374 10.1522 20.9286 12.2529 20.9286 15.0614C20.9286 17.9916 19.0815 20.3475 16.518 20.3475C15.6561 20.3475 14.847 19.9008 14.5696 19.3725L14.0396 21.3923C13.8482 22.1308 13.33 23.0564 12.9837 23.6214C13.7989 23.8731 14.6473 24.0007 15.5004 24C20.1943 24 24 20.1943 24 15.5004C24 10.8065 20.1935 7 15.4996 7Z" fill="black"/>
</svg>
