<svg width="48" height="71" viewBox="0 0 48 71" fill="none" xmlns="http://www.w3.org/2000/svg">
<path d="M47.6271 15.5243L32.4757 0.372696C32.2369 0.134137 31.9134 0 31.5758 0H8.84845C3.96929 0 0 3.96929 0 8.84845V61.8789C0 66.7581 3.96929 70.7274 8.84845 70.7274H24.0001C24.7028 70.7274 25.2728 70.1573 25.2728 69.4546C25.2728 68.7519 24.703 68.1819 24.0001 68.1819H8.84845C5.37281 68.1819 2.54526 65.3543 2.54526 61.8787V8.84845C2.54526 5.37281 5.37281 2.54526 8.84845 2.54526H31.0487L45.4545 16.9513V46.7275C45.4545 47.4302 46.0244 48.0002 46.7273 48.0002C47.43 48.0002 48 47.4304 48 46.7275V16.4242C47.9998 16.0866 47.8659 15.7629 47.6271 15.5243Z" fill="#F25549"/>
<path d="M46.7269 15.1516H39.1512C35.6758 15.1516 32.8482 12.3241 32.8482 8.84845V1.27273C32.8482 0.569822 32.2784 0 31.5755 0C30.8728 0 30.3027 0.569822 30.3027 1.27273V8.84845C30.3027 13.7274 34.272 17.6969 39.151 17.6969H46.7267C47.4294 17.6969 47.9994 17.1271 47.9994 16.4242C47.9994 15.7213 47.4296 15.1516 46.7269 15.1516Z" fill="#F25549"/>
<path d="M24.0003 7.57568H8.84891C8.14599 7.57568 7.57617 8.14551 7.57617 8.84842C7.57617 9.55133 8.14599 10.1212 8.84891 10.1212H24.0006C24.7033 10.1212 25.2733 9.55133 25.2733 8.84842C25.2731 8.14551 24.7031 7.57568 24.0003 7.57568Z" fill="#F25549"/>
<path d="M35.1269 61.7364L32.4753 59.085C31.9781 58.5882 31.1723 58.5882 30.6755 59.085C30.1785 59.582 30.1785 60.3879 30.6755 60.8849L33.327 63.5362C33.5757 63.7846 33.9011 63.9089 34.2269 63.9089C34.5527 63.9089 34.8783 63.7846 35.1269 63.5362C35.6239 63.0392 35.6239 62.2334 35.1269 61.7364Z" fill="#F25549"/>
<path d="M43.5405 53.4073C43.0456 52.9082 42.2401 52.9044 41.7406 53.3993L33.3318 61.7323C32.8327 62.227 32.829 63.0329 33.3239 63.5322C33.5729 63.7833 33.9002 63.9091 34.2279 63.9091C34.5516 63.9091 34.8755 63.7863 35.1237 63.5404L43.5327 55.2071C44.0316 54.7122 44.0354 53.9063 43.5405 53.4073Z" fill="#F25549"/>
<path d="M39.1518 22.7273H8.84891C8.14599 22.7273 7.57617 23.2971 7.57617 24C7.57617 24.7029 8.14599 25.2728 8.84891 25.2728H39.152C39.8547 25.2728 40.4245 24.7029 40.4245 24C40.4245 23.2971 39.8545 22.7273 39.1518 22.7273Z" fill="#F25549"/>
<path d="M39.1518 30.303H8.84891C8.14599 30.303 7.57617 30.8728 7.57617 31.5757C7.57617 32.2786 8.14599 32.8484 8.84891 32.8484H39.152C39.8547 32.8484 40.4245 32.2786 40.4245 31.5757C40.4245 30.8728 39.8545 30.303 39.1518 30.303Z" fill="#F25549"/>
<path d="M39.1518 37.8789H8.84891C8.14599 37.8789 7.57617 38.4487 7.57617 39.1516C7.57617 39.8543 8.14599 40.4244 8.84891 40.4244H39.152C39.8547 40.4244 40.4245 39.8546 40.4245 39.1516C40.4245 38.4487 39.8545 37.8789 39.1518 37.8789Z" fill="#F25549"/>
</svg>
