<svg width="76" height="76" viewBox="0 0 76 76" fill="none" xmlns="http://www.w3.org/2000/svg">
<path fill-rule="evenodd" clip-rule="evenodd" d="M37.5225 75.045C58.2456 75.045 75.045 58.2456 75.045 37.5225C75.045 16.7994 58.2456 0 37.5225 0C16.7994 0 0 16.7994 0 37.5225C0 58.2456 16.7994 75.045 37.5225 75.045Z" fill="white" fill-opacity="0.2"/>
<path fill-rule="evenodd" clip-rule="evenodd" d="M42.1209 27.6576C42.2664 27.5546 42.4592 27.5387 42.6205 27.618C42.7813 27.6972 42.8828 27.858 42.8828 28.0338V48.5432C42.8828 48.7189 42.7813 48.8797 42.6205 48.959C42.5526 48.9925 42.4779 49.0093 42.4042 49.0093C42.3042 49.0093 42.2046 48.979 42.1209 48.9193L27.7628 38.6646C27.6398 38.5765 27.5675 38.4367 27.5675 38.2885C27.5675 38.1403 27.6398 38.0004 27.7628 37.9123L42.1209 27.6576Z" fill="white"/>
</svg>
