<svg width="30" height="30" viewBox="0 0 30 30" fill="none" xmlns="http://www.w3.org/2000/svg">
<path d="M24 9.66303C23.3748 9.9364 22.6945 10.1331 21.9938 10.2098C22.7213 9.77162 23.2661 9.07942 23.526 8.26303C22.8433 8.67472 22.0954 8.96341 21.3155 9.11628C20.9895 8.76302 20.5952 8.4816 20.1573 8.28955C19.7193 8.0975 19.247 7.99894 18.7699 8.00001C16.8392 8.00001 15.2865 9.5864 15.2865 11.5331C15.2865 11.8065 15.3192 12.0799 15.3723 12.3429C12.4814 12.1897 9.90314 10.7897 8.18904 8.64616C7.87671 9.18693 7.71304 9.80266 7.71506 10.4293C7.71506 11.6553 8.33001 12.7364 9.26776 13.3722C8.71513 13.3501 8.17544 13.1962 7.69259 12.9228V12.9663C7.69259 14.6831 8.8898 16.1059 10.4854 16.4331C10.1858 16.512 9.87761 16.5524 9.56808 16.5533C9.34131 16.5533 9.12679 16.5305 8.91023 16.4994C9.35152 17.8994 10.6366 18.9163 12.1668 18.9494C10.9696 19.9 9.47002 20.4592 7.84173 20.4592C7.54957 20.4592 7.27989 20.4488 7 20.4157C8.54453 21.4201 10.3771 22 12.3507 22C18.7576 22 22.2634 16.6195 22.2634 11.9494C22.2634 11.7962 22.2634 11.6429 22.2532 11.4897C22.9315 10.9864 23.526 10.363 24 9.66303Z" fill="black"/>
</svg>
