<svg width="16" height="12" viewBox="0 0 16 12" fill="none" xmlns="http://www.w3.org/2000/svg">
<path fill-rule="evenodd" clip-rule="evenodd" d="M15.006 1.303C14.454 1.526 13.86 1.673 13.238 1.741C13.874 1.396 14.361 0.851 14.592 0.204C13.996 0.522 13.337 0.753 12.636 0.878C12.075 0.337 11.275 0 10.389 0C8.689 0 7.31 1.244 7.31 2.78C7.31 2.998 7.338 3.21 7.39 3.413C4.832 3.298 2.563 2.19 1.044 0.509C0.78 0.919 0.628 1.396 0.628 1.906C0.628 2.87 1.172 3.722 1.998 4.22C1.494 4.205 1.019 4.082 0.603 3.872C0.603 3.884 0.603 3.895 0.603 3.908C0.603 5.254 1.665 6.377 3.073 6.633C2.814 6.697 2.542 6.73 2.262 6.73C2.063 6.73 1.87 6.714 1.682 6.681C2.074 7.785 3.211 8.589 4.558 8.611C3.504 9.357 2.177 9.801 0.734 9.801C0.486 9.801 0.242 9.789 0 9.763C1.362 10.55 2.981 11.012 4.719 11.012C10.382 11.012 13.479 6.775 13.479 3.102C13.479 2.981 13.475 2.861 13.47 2.742C14.071 2.35 14.594 1.86 15.006 1.303Z" fill="#0E4890"/>
</svg>
