<svg width="21" height="21" viewBox="0 0 21 21" fill="none" xmlns="http://www.w3.org/2000/svg">
<path fill-rule="evenodd" clip-rule="evenodd" d="M3.33338 20.1905H18.4762C19.8694 20.1905 21 19.0598 21 17.6667V2.52381C21 1.13067 19.8694 0 18.4762 0H3.33338C1.94024 0 0.80957 1.13067 0.80957 2.52381V17.6667C0.80957 19.0598 1.94024 20.1905 3.33338 20.1905ZM15.9272 7.85914C15.9272 11.2764 13.3226 15.2236 8.56269 15.2236C7.10393 15.2236 5.74107 14.7946 4.60031 14.0677C4.80221 14.093 5.00916 14.103 5.21612 14.103C6.42755 14.103 7.54307 13.6891 8.43145 12.9926C7.30078 12.9724 6.34174 12.2253 6.01364 11.1956C6.17012 11.2259 6.33164 11.241 6.49821 11.241C6.73545 11.241 6.96259 11.2108 7.17964 11.1502C5.9985 10.913 5.10507 9.86305 5.10507 8.61124V8.5759C5.45335 8.76772 5.85212 8.88381 6.27612 8.89895C5.58459 8.43457 5.12526 7.6421 5.12526 6.74362C5.12526 6.26914 5.25145 5.82495 5.47355 5.44133C6.75059 7.0061 8.65859 8.04086 10.8089 8.14686C10.7685 7.95505 10.7433 7.75819 10.7433 7.55629C10.7433 6.12781 11.9042 4.96686 13.3327 4.96686C14.0747 4.96686 14.746 5.27981 15.2205 5.78457C15.8111 5.66848 16.3663 5.45648 16.866 5.15867C16.6692 5.76438 16.2603 6.27419 15.7253 6.59219C16.2502 6.52657 16.7499 6.39029 17.2143 6.18333C16.866 6.70324 16.4269 7.16257 15.9221 7.526C15.9272 7.63705 15.9272 7.7481 15.9272 7.85914Z" fill="black"/>
</svg>
